<svg xmlns="http://www.w3.org/2000/svg" viewBox="0 0 32 32">
  <style>
    .accent { fill: #3878a0 }
    .text { fill: #303840 }
    @media (prefers-color-scheme: dark) {
      .accent { fill: #6cb8dc }
      .text { fill: #c6cdd4 }
    }
  </style>
  <path class="accent" fill="#3878a0" d="M2 25.59V11.14H5.2V13.85Q5.47 12.48 6.49 11.68Q7.52 10.88 9.09 10.88Q11.22 10.88 12.49 12.3Q13.77 13.71 13.77 16.11V25.59H10.48V16.5Q10.48 15.16 9.79 14.44Q9.09 13.71 7.91 13.71Q6.68 13.71 5.98 14.45Q5.28 15.19 5.28 16.55V25.59Z"/>
  <path class="text" fill="#303840" d="M23.7 25.85Q21.75 25.85 20.29 25.17Q18.84 24.48 18.04 23.21Q17.23 21.94 17.23 20.18H20.47Q20.47 21.46 21.35 22.23Q22.23 22.99 23.7 22.99Q25.11 22.99 25.94 22.24Q26.77 21.49 26.77 20.23Q26.77 19.28 26.23 18.56Q25.69 17.84 24.69 17.58L22.12 16.92Q20.05 16.39 18.84 14.95Q17.63 13.5 17.63 11.51Q17.63 9.07 19.23 7.61Q20.83 6.15 23.51 6.15Q25.32 6.15 26.68 6.81Q28.03 7.46 28.77 8.66Q29.5 9.85 29.5 11.46H26.3Q26.3 10.35 25.53 9.67Q24.77 8.99 23.51 8.99Q22.28 8.99 21.56 9.66Q20.83 10.33 20.83 11.4Q20.83 12.3 21.35 12.87Q21.86 13.45 22.78 13.71L25.43 14.37Q27.56 14.9 28.78 16.47Q30 18.05 30 20.23Q30 21.94 29.23 23.2Q28.45 24.46 27.03 25.15Q25.61 25.85 23.7 25.85Z"/>
</svg>
